<?xml version="1.0" encoding="UTF-8"?>
<!DOCTYPE svg PUBLIC "-//W3C//DTD SVG 1.1//EN" "http://www.w3.org/Graphics/SVG/1.1/DTD/svg11.dtd">
<!-- Creator: CorelDRAW -->
<svg xmlns="http://www.w3.org/2000/svg" xml:space="preserve" width="1.70666in" height="1.70666in" version="1.1" style="shape-rendering:geometricPrecision; text-rendering:geometricPrecision; image-rendering:optimizeQuality; fill-rule:evenodd; clip-rule:evenodd"
viewBox="0 0 1706.66 1706.66"
 xmlns:xlink="http://www.w3.org/1999/xlink"
 xmlns:xodm="http://www.corel.com/coreldraw/odm/2003">
 <defs>
  <style type="text/css">
   <![CDATA[
    .fil5 {fill:url(#id0)}
    .fil9 {fill:url(#id1)}
    .fil10 {fill:url(#id2)}
    .fil0 {fill:url(#id3)}
    .fil4 {fill:url(#id4)}
    .fil6 {fill:url(#id5)}
    .fil1 {fill:url(#id6)}
    .fil8 {fill:url(#id7)}
    .fil3 {fill:url(#id8)}
    .fil2 {fill:url(#id9)}
    .fil7 {fill:url(#id10)}
    .fil11 {fill:url(#id11)}
   ]]>
  </style>
  <linearGradient id="id0" gradientUnits="userSpaceOnUse" x1="913.05" y1="567.1" x2="1118.6" y2="567.1">
   <stop offset="0" style="stop-opacity:1; stop-color:#C73C5B"/>
   <stop offset="1" style="stop-opacity:1; stop-color:#A32F60"/>
  </linearGradient>
  <linearGradient id="id1" gradientUnits="userSpaceOnUse" xlink:href="#id0" x1="1191.66" y1="1555.29" x2="1231.66" y2="1555.29">
  </linearGradient>
  <linearGradient id="id2" gradientUnits="userSpaceOnUse" x1="946.2" y1="567.1" x2="1085.45" y2="567.1">
   <stop offset="0" style="stop-opacity:1; stop-color:#E87EA2"/>
   <stop offset="1" style="stop-opacity:1; stop-color:#FCD3A5"/>
  </linearGradient>
  <linearGradient id="id3" gradientUnits="userSpaceOnUse" xlink:href="#id0" x1="467.8" y1="237.22" x2="1186.97" y2="237.22">
  </linearGradient>
  <linearGradient id="id4" gradientUnits="userSpaceOnUse" xlink:href="#id0" x1="781.21" y1="532.46" x2="955.25" y2="532.46">
  </linearGradient>
  <linearGradient id="id5" gradientUnits="userSpaceOnUse" xlink:href="#id0" x1="618.2" y1="567.1" x2="823.75" y2="567.1">
  </linearGradient>
  <linearGradient id="id6" gradientUnits="userSpaceOnUse" xlink:href="#id0" x1="603.01" y1="1206.53" x2="1162.02" y2="1206.53">
  </linearGradient>
  <linearGradient id="id7" gradientUnits="userSpaceOnUse" xlink:href="#id0" x1="475" y1="1555.28" x2="515" y2="1555.28">
  </linearGradient>
  <linearGradient id="id8" gradientUnits="userSpaceOnUse" xlink:href="#id0" x1="714.91" y1="777.6" x2="1021.76" y2="777.6">
  </linearGradient>
  <linearGradient id="id9" gradientUnits="userSpaceOnUse" xlink:href="#id2" x1="494.94" y1="664.71" x2="1239.02" y2="664.71">
  </linearGradient>
  <linearGradient id="id10" gradientUnits="userSpaceOnUse" xlink:href="#id2" x1="228.18" y1="1394.61" x2="1478.53" y2="1394.61">
  </linearGradient>
  <linearGradient id="id11" gradientUnits="userSpaceOnUse" xlink:href="#id2" x1="651.35" y1="567.1" x2="790.6" y2="567.1">
  </linearGradient>
 </defs>
 <g id="Layer_x0020_1">
  <metadata id="CorelCorpID_0Corel-Layer"/>
  <path class="fil0" d="M1157.07 474.46c-1.11,0 -2.36,-0.14 -3.47,-0.28 -143.33,-25.17 -333.93,-93.94 -464.47,-204.1 -38.06,146.78 -96.94,52.32 -91.77,183.55 0.44,11.46 -8.51,20.83 -20.14,20.83 -22.84,0 -145.2,-99.04 -99.17,-382.64 2.7,-16.67 23.81,-22.84 34.86,-9.86 9.59,11.09 33.63,33.96 60.28,46.68 -16.6,-33.26 -27.66,-68.78 -31.67,-106.54 -2.15,-19.94 23.61,-30.36 35.83,-14.17 61.94,81.53 253.19,31.81 310.41,14.58 74.03,-22.22 140.97,-7.64 193.47,42.08 92.92,88.06 124.31,275.14 95.28,394.58 -2.22,9.17 -10.42,15.28 -19.44,15.28z"/>
  <path class="fil1" d="M959.84 1023.27c-3.36,-16.45 17.59,-33.42 33.49,-18.81l91.11 84.03c7.89,7.31 8.03,18.21 3.01,25.84l74.56 71.43 -163.51 233.32 -271.78 -36.06 -123.72 -170.55 64.98 -113.72 -19.66 -15.53 87.78 -83.47c16.31,-15.49 38.91,3.37 33.2,20.56l44.4 4.44 88.48 -6.5 34.71 19.01 22.94 -13.96z"/>
  <path class="fil2" d="M552.65 638.9c-33.3,-10.46 -57.51,-41.61 -57.51,-78.33 0,-47.04 -5.78,-87.07 41.77,-115.31 18.58,21.39 34,29.39 44.63,28.76 8.19,-1.72 14.35,-8.25 15.61,-16.46l0.08 -0.59 0 0.02c0.13,-1.09 0.18,-2.21 0.14,-3.35 -5.17,-131.23 53.71,-36.73 91.78,-183.54 125.56,105.94 306.63,173.59 447.8,201l0 -0.01c31.82,6.18 37.1,6.44 44,-33.22 27.64,9.3 58.09,36.81 58.09,78.82l0 44.03c0,36.68 -24.4,67.86 -57.76,78.26 8.96,43.61 20.89,137.67 -29.73,182.3 -66.91,58.98 -10.65,111.79 -112.78,142.63 -19.87,41.33 -50.7,95.42 -104.59,95.42 -44.79,0 -33.05,-29.86 -67.22,-29.86 -11.25,0 -19.03,3.61 -20.83,5.97 -24.17,32.92 -62.08,25 -80.56,15.56 -30.42,-10.56 -58.19,-61.67 -70.42,-87.08 -102.07,-30.9 -45.92,-83.7 -112.78,-142.63 -50.65,-44.66 -38.67,-138.79 -29.71,-182.37z"/>
  <path class="fil3" d="M833.05 833.77c-12.96,0 -46.13,-9.38 -55.69,-20 -0.14,0 -11.39,-8.19 -39.86,-4.58 -17.98,2.21 -29.53,-18.78 -17.92,-32.78 20.86,-25.15 90.02,-86.29 148.75,-35.14 58.83,-51.24 127.74,10.1 148.75,35.14 11.59,13.81 0.13,34.98 -17.92,32.78 -32.79,-4 -40.19,5.68 -44.3,8.06 -34.36,19.89 -64.54,22.83 -86.53,2.92 -9.25,8.78 -22.06,13.61 -35.28,13.61z"/>
  <path class="fil4" d="M801.25 567.24c-16.74,0 -26.6,-20.01 -15,-33.19 73.41,-83.44 199.31,-4.09 162.35,28.19 -24.54,21.44 -31.48,-25.42 -80.28,-25.42 -43.89,0 -47.44,30.42 -67.08,30.42z"/>
  <path class="fil5" d="M1015.83 669.88c-56.67,0 -102.78,-46.11 -102.78,-102.78 0,-56.67 46.11,-102.78 102.78,-102.78 56.67,0 102.78,46.11 102.78,102.78 0,56.67 -46.11,102.78 -102.78,102.78z"/>
  <path class="fil6" d="M720.97 669.88c-56.67,0 -102.78,-46.11 -102.78,-102.78 0,-56.67 46.11,-102.78 102.78,-102.78 56.67,0 102.78,46.11 102.78,102.78 0,56.67 -46.11,102.78 -102.78,102.78z"/>
  <path class="fil7" d="M1458.46 1706.68l-1210.27 0c-11.61,0 -20.89,-9.93 -20,-21.53l16.53 -209.03c15,-190.42 140.97,-392.92 344.72,-392.92l58.89 0 31.81 25.14c100.04,237.96 274.43,233.75 372.22,-12.36 7.24,-18.22 34.83,-12.64 64.86,-12.64 203.75,0 329.72,202.5 344.72,392.92l16.53 209.03c0.89,11.56 -8.09,21.39 -20,21.39z"/>
  <path class="fil8" d="M515 1706.68l-40 0 0 -283.06c0,-26.33 40,-26.32 40,0l0 283.06z"/>
  <path class="fil9" d="M1231.66 1706.68l-40 0 0 -283.06c0,-26.3 40,-26.29 40,0l0 283.06z"/>
  <path class="fil10" d="M1015.83 636.73c-38.39,0 -69.63,-31.24 -69.63,-69.63 0,-38.39 31.24,-69.63 69.63,-69.63 38.39,0 69.63,31.24 69.63,69.63 0,38.39 -31.24,69.63 -69.63,69.63z"/>
  <path class="fil11" d="M720.97 636.73c-38.39,0 -69.63,-31.24 -69.63,-69.63 0,-38.39 31.24,-69.63 69.63,-69.63 38.39,0 69.63,31.24 69.63,69.63 0,38.39 -31.24,69.63 -69.63,69.63z"/>
 </g>
</svg>
