<?xml version="1.0" encoding="UTF-8"?>
<!DOCTYPE svg PUBLIC "-//W3C//DTD SVG 1.1//EN" "http://www.w3.org/Graphics/SVG/1.1/DTD/svg11.dtd">
<!-- Creator: CorelDRAW -->
<svg xmlns="http://www.w3.org/2000/svg" xml:space="preserve" width="1.70666in" height="1.70666in" version="1.1" style="shape-rendering:geometricPrecision; text-rendering:geometricPrecision; image-rendering:optimizeQuality; fill-rule:evenodd; clip-rule:evenodd"
viewBox="0 0 1706.66 1706.66"
 xmlns:xlink="http://www.w3.org/1999/xlink"
 xmlns:xodm="http://www.corel.com/coreldraw/odm/2003">
 <defs>
  <style type="text/css">
   <![CDATA[
    .fil4 {fill:url(#id0)}
    .fil1 {fill:url(#id1)}
    .fil15 {fill:url(#id2)}
    .fil13 {fill:url(#id3)}
    .fil11 {fill:url(#id4)}
    .fil8 {fill:url(#id5)}
    .fil14 {fill:url(#id6)}
    .fil5 {fill:url(#id7)}
    .fil12 {fill:url(#id8)}
    .fil3 {fill:url(#id9)}
    .fil2 {fill:url(#id10)}
    .fil10 {fill:url(#id11)}
    .fil9 {fill:url(#id12)}
    .fil0 {fill:url(#id13)}
    .fil6 {fill:url(#id14)}
    .fil7 {fill:url(#id15)}
   ]]>
  </style>
  <linearGradient id="id0" gradientUnits="objectBoundingBox" x1="0%" y1="50%" x2="100%" y2="50%">
   <stop offset="0" style="stop-opacity:1; stop-color:#C73C5B"/>
   <stop offset="1" style="stop-opacity:1; stop-color:#A32F60"/>
  </linearGradient>
  <linearGradient id="id1" gradientUnits="userSpaceOnUse" xlink:href="#id0" x1="1186.43" y1="648.13" x2="1370.2" y2="648.13">
  </linearGradient>
  <linearGradient id="id2" gradientUnits="userSpaceOnUse" xlink:href="#id0" x1="739.75" y1="856.98" x2="966.22" y2="856.98">
  </linearGradient>
  <linearGradient id="id3" gradientUnits="userSpaceOnUse" xlink:href="#id0" x1="647.78" y1="664.58" x2="746.7" y2="664.58">
  </linearGradient>
  <linearGradient id="id4" gradientUnits="userSpaceOnUse" xlink:href="#id0" x1="468" y1="398.54" x2="1237.89" y2="398.54">
  </linearGradient>
  <linearGradient id="id5" gradientUnits="userSpaceOnUse" xlink:href="#id0" x1="1050.47" y1="1445.69" x2="1179.93" y2="1445.69">
  </linearGradient>
  <linearGradient id="id6" gradientUnits="userSpaceOnUse" xlink:href="#id0" x1="959.16" y1="664.58" x2="1058.08" y2="664.58">
  </linearGradient>
  <linearGradient id="id7" gradientUnits="userSpaceOnUse" xlink:href="#id0" x1="341.6" y1="648.13" x2="519.7" y2="648.13">
  </linearGradient>
  <linearGradient id="id8" gradientUnits="userSpaceOnUse" x1="572.68" y1="1159.93" x2="1133.81" y2="1159.93">
   <stop offset="0" style="stop-opacity:1; stop-color:#E87EA2"/>
   <stop offset="1" style="stop-opacity:1; stop-color:#FCD3A5"/>
  </linearGradient>
  <linearGradient id="id9" gradientUnits="userSpaceOnUse" xlink:href="#id0" x1="372.99" y1="1549.43" x2="412.99" y2="1549.43">
  </linearGradient>
  <linearGradient id="id10" gradientUnits="userSpaceOnUse" xlink:href="#id8" x1="0.14" y1="1376.69" x2="1706.59" y2="1376.69">
  </linearGradient>
  <linearGradient id="id11" gradientUnits="userSpaceOnUse" xlink:href="#id8" x1="468.01" y1="639.37" x2="1237.98" y2="639.37">
  </linearGradient>
  <linearGradient id="id12" gradientUnits="userSpaceOnUse" xlink:href="#id0" x1="493" y1="1142.05" x2="1213.81" y2="1142.05">
  </linearGradient>
  <linearGradient id="id13" gradientUnits="userSpaceOnUse" xlink:href="#id0" x1="399.74" y1="286.67" x2="1312.07" y2="286.67">
  </linearGradient>
  <linearGradient id="id14" gradientUnits="userSpaceOnUse" xlink:href="#id0" x1="571.6" y1="1333.31" x2="611.6" y2="1333.31">
  </linearGradient>
  <linearGradient id="id15" gradientUnits="userSpaceOnUse" xlink:href="#id0" x1="526.85" y1="1445.69" x2="656.33" y2="1445.69">
  </linearGradient>
 </defs>
 <g id="Layer_x0020_1">
  <metadata id="CorelCorpID_0Corel-Layer"/>
  <path class="fil0" d="M1291.72 526.67c-24.6,0 -20,-28.73 -20,-46.81 0,-216.8 -186.53,-393.19 -415.83,-393.19 -229.3,0 -415.83,176.39 -415.83,393.19 0,18.27 4.61,46.81 -20,46.81 -24.61,0 -20,-28.54 -20,-46.81 0,-238.89 204.44,-433.19 455.83,-433.19 251.39,0 455.83,194.3 455.83,433.19 0,18.06 4.61,46.81 -20,46.81z"/>
  <path class="fil1" d="M1285.61 809.72l-79.44 0c-23.55,0 -26.03,-32.01 -7.44,-38.76l7.13 -244.86c-21.74,-4.27 -20.25,-39.57 4.48,-39.57l75.28 0c46.67,0 84.58,37.92 84.58,84.58l0 154.03c0,46.67 -38.06,84.58 -84.58,84.58z"/>
  <path class="fil2" d="M1686.72 1660l-1666.66 0c-11.11,0 -20,-9.03 -20,-20 0,-725.86 1702.09,-731.66 1706.52,-0.28 0.14,11.39 -8.75,20.28 -19.86,20.28z"/>
  <path class="fil3" d="M412.98 1660l-40 0 0 -201.39c0,-26.33 40,-26.32 40,0l0 201.39z"/>
  <path class="fil4" d="M1356.59 1660l-40 0 0 -201.39c0,-26.3 40,-26.29 40,0l0 201.39z"/>
  <path class="fil5" d="M499.93 809.72l-73.75 0c-46.67,0 -84.58,-37.92 -84.58,-84.58l0 -154.03c0,-46.67 37.92,-84.58 84.58,-84.58l69.58 0c25.74,0 27.61,40 -1.27,40l6.87 243.24c24.91,1.43 24.44,39.96 -1.44,39.96z"/>
  <path class="fil6" d="M591.59 1465.69c-11.11,0 -20,-9.03 -20,-20l0 -225c0,-26.33 40,-26.33 40,0l0 225c0,10.97 -9.03,20 -20,20z"/>
  <path class="fil4" d="M1115.2 1465.69c-10.97,0 -20,-9.03 -20,-20l0 -225c0,-26.3 40,-26.3 40,0l0 225c0,10.97 -8.89,20 -20,20z"/>
  <path class="fil7" d="M636.59 1465.69l-90 0c-26.33,0 -26.33,-40 0,-40l90 0c26.39,0 26.23,40 0,40z"/>
  <path class="fil8" d="M1160.2 1465.69l-90 0c-26.3,0 -26.3,-40 0,-40l90 0c26.23,0 26.39,40 0,40z"/>
  <path class="fil9" d="M857.7 1374.58l-8.47 0c-166.39,0 -356.24,-175.42 -356.24,-329.3 0,-45.69 22.64,-90.69 65.56,-130.28 18.01,-16.65 48.97,9 24.41,31.94 6.98,21.31 27.74,55.05 89.53,67.81 91.7,18.93 156.58,38.78 162.39,40.57 8.15,0.35 128.44,4.96 182.94,-30.7 40.12,-26.26 69.19,-55.35 102.44,-81.8 -18.75,-24.96 12.14,-42.37 27.59,-28.23 43.19,39.58 65.97,84.86 65.97,130.69 0,153.88 -189.72,329.3 -356.11,329.3z"/>
  <path class="fil10" d="M852.98 1082.36c-212.36,0 -385,-172.78 -385,-385l0 -115.97c0,-212.36 172.78,-385 385,-385 212.22,0 385,172.78 385,385l0 115.97c0.14,212.22 -172.64,385 -385,385z"/>
  <path class="fil11" d="M467.98 600.68l0 -19.29c0,-212.36 172.78,-385 385,-385 209.72,0 380.89,168.72 384.91,377.5 -227.28,17.52 -360.07,-101.75 -389.35,-163.61 -85.56,102.56 -300.91,169.69 -380.55,190.4z"/>
  <path class="fil12" d="M857.7 1294.58c-80.37,0 -141.58,-42.58 -174.86,-69.44 -99.31,-80.18 -137.46,-199.86 -89.72,-199.86 11.11,0 20,9.03 20,20 0,84.51 136.57,209.28 236.11,209.3 116.91,0.03 244.58,-129.06 244.58,-209.3 0,-26.3 40,-26.3 40,0 0,105.56 -152.64,249.3 -276.11,249.3z"/>
  <path class="fil13" d="M715.22 696.43c-24.78,0 -67.45,6.31 -67.45,-31.85 0,-38.16 42.68,-31.85 67.45,-31.85 42.08,0 41.83,63.7 0,63.7z"/>
  <path class="fil14" d="M1026.62 696.43c-24.47,0 -67.46,6.31 -67.46,-31.85 0,-38.15 42.99,-31.85 67.46,-31.85 41.83,0 42.08,63.7 0,63.7z"/>
  <path class="fil15" d="M852.97 902.72c-58.28,0 -139.49,-45.34 -104.95,-81.76 30.28,-31.92 44.5,24.96 104.96,24.96 60.41,0 74.68,-56.89 104.96,-24.96 34.72,36.61 -47.39,81.76 -104.96,81.76z"/>
 </g>
</svg>
