<?xml version="1.0" encoding="UTF-8"?>
<!DOCTYPE svg PUBLIC "-//W3C//DTD SVG 1.1//EN" "http://www.w3.org/Graphics/SVG/1.1/DTD/svg11.dtd">
<!-- Creator: CorelDRAW -->
<svg xmlns="http://www.w3.org/2000/svg" xml:space="preserve" width="1.70666in" height="1.70666in" version="1.1" style="shape-rendering:geometricPrecision; text-rendering:geometricPrecision; image-rendering:optimizeQuality; fill-rule:evenodd; clip-rule:evenodd"
viewBox="0 0 1706.66 1706.66"
 xmlns:xlink="http://www.w3.org/1999/xlink"
 xmlns:xodm="http://www.corel.com/coreldraw/odm/2003">
 <defs>
  <style type="text/css">
   <![CDATA[
    .fil7 {fill:url(#id0)}
    .fil2 {fill:url(#id1)}
    .fil3 {fill:url(#id2)}
    .fil17 {fill:url(#id3)}
    .fil9 {fill:url(#id4)}
    .fil1 {fill:url(#id5)}
    .fil0 {fill:url(#id6)}
    .fil4 {fill:url(#id7)}
    .fil12 {fill:url(#id8)}
    .fil13 {fill:url(#id9)}
    .fil6 {fill:url(#id10)}
    .fil15 {fill:url(#id11)}
    .fil10 {fill:url(#id12)}
    .fil18 {fill:url(#id13)}
    .fil23 {fill:url(#id14)}
    .fil16 {fill:url(#id15)}
    .fil19 {fill:url(#id16)}
    .fil21 {fill:url(#id17)}
    .fil24 {fill:url(#id18)}
    .fil14 {fill:url(#id19)}
    .fil8 {fill:url(#id20)}
    .fil5 {fill:url(#id21)}
    .fil11 {fill:url(#id22)}
    .fil20 {fill:url(#id23)}
    .fil22 {fill:url(#id24)}
   ]]>
  </style>
  <linearGradient id="id0" gradientUnits="userSpaceOnUse" x1="1308.74" y1="1427.99" x2="1348.74" y2="1427.99">
   <stop offset="0" style="stop-opacity:1; stop-color:#C73C5B"/>
   <stop offset="1" style="stop-opacity:1; stop-color:#A32F60"/>
  </linearGradient>
  <linearGradient id="id1" gradientUnits="userSpaceOnUse" xlink:href="#id0" x1="1131.29" y1="520.62" x2="1272.12" y2="520.62">
  </linearGradient>
  <linearGradient id="id2" gradientUnits="userSpaceOnUse" x1="532.81" y1="605.89" x2="1182.22" y2="605.89">
   <stop offset="0" style="stop-opacity:1; stop-color:#E87EA2"/>
   <stop offset="1" style="stop-opacity:1; stop-color:#FCD3A5"/>
  </linearGradient>
  <linearGradient id="id3" gradientUnits="userSpaceOnUse" xlink:href="#id0" x1="821.54" y1="1523.21" x2="885.13" y2="1523.21">
  </linearGradient>
  <linearGradient id="id4" gradientUnits="userSpaceOnUse" xlink:href="#id0" x1="766.49" y1="778.87" x2="948.82" y2="778.87">
  </linearGradient>
  <linearGradient id="id5" gradientUnits="userSpaceOnUse" xlink:href="#id0" x1="442.89" y1="520.68" x2="583.72" y2="520.68">
  </linearGradient>
  <linearGradient id="id6" gradientUnits="userSpaceOnUse" xlink:href="#id0" x1="600.22" y1="1052.26" x2="1109.25" y2="1052.26">
  </linearGradient>
  <linearGradient id="id7" gradientUnits="userSpaceOnUse" xlink:href="#id0" x1="437.26" y1="217.36" x2="1190.97" y2="217.36">
  </linearGradient>
  <linearGradient id="id8" gradientUnits="userSpaceOnUse" xlink:href="#id0" x1="706.67" y1="1523.21" x2="1000" y2="1523.21">
  </linearGradient>
  <linearGradient id="id9" gradientUnits="userSpaceOnUse" xlink:href="#id0" x1="462.27" y1="1234.76" x2="1224.2" y2="1234.76">
  </linearGradient>
  <linearGradient id="id10" gradientUnits="userSpaceOnUse" xlink:href="#id0" x1="357.93" y1="1432.09" x2="397.93" y2="1432.09">
  </linearGradient>
  <linearGradient id="id11" gradientUnits="userSpaceOnUse" xlink:href="#id0" x1="771.54" y1="1523.21" x2="935.13" y2="1523.21">
  </linearGradient>
  <linearGradient id="id12" gradientUnits="userSpaceOnUse" xlink:href="#id0" x1="655.41" y1="544.73" x2="756.05" y2="544.73">
  </linearGradient>
  <linearGradient id="id13" gradientUnits="userSpaceOnUse" xlink:href="#id2" x1="832.48" y1="1523.21" x2="874.19" y2="1523.21">
  </linearGradient>
  <linearGradient id="id14" gradientUnits="userSpaceOnUse" xlink:href="#id0" x1="850.87" y1="1523.21" x2="855.8" y2="1523.21">
  </linearGradient>
  <linearGradient id="id15" gradientUnits="userSpaceOnUse" xlink:href="#id2" x1="798.46" y1="1523.21" x2="908.2" y2="1523.21">
  </linearGradient>
  <linearGradient id="id16" gradientUnits="userSpaceOnUse" xlink:href="#id0" x1="838.57" y1="1523.21" x2="868.1" y2="1523.21">
  </linearGradient>
  <linearGradient id="id17" gradientUnits="userSpaceOnUse" xlink:href="#id0" x1="847.87" y1="1523.21" x2="858.79" y2="1523.21">
  </linearGradient>
  <linearGradient id="id18" gradientUnits="userSpaceOnUse" xlink:href="#id2" x1="851.94" y1="1523.21" x2="854.73" y2="1523.21">
  </linearGradient>
  <linearGradient id="id19" gradientUnits="userSpaceOnUse" xlink:href="#id2" x1="744.98" y1="1523.21" x2="961.7" y2="1523.21">
  </linearGradient>
  <linearGradient id="id20" gradientUnits="userSpaceOnUse" xlink:href="#id2" x1="493.46" y1="1176.35" x2="1186.4" y2="1176.35">
  </linearGradient>
  <linearGradient id="id21" gradientUnits="userSpaceOnUse" xlink:href="#id2" x1="108.81" y1="1408.71" x2="1597.92" y2="1408.71">
  </linearGradient>
  <linearGradient id="id22" gradientUnits="userSpaceOnUse" xlink:href="#id0" x1="958.71" y1="544.79" x2="1059.88" y2="544.79">
  </linearGradient>
  <linearGradient id="id23" gradientUnits="userSpaceOnUse" xlink:href="#id2" x1="844.11" y1="1523.21" x2="862.56" y2="1523.21">
  </linearGradient>
  <linearGradient id="id24" gradientUnits="userSpaceOnUse" xlink:href="#id2" x1="849.51" y1="1523.21" x2="857.15" y2="1523.21">
  </linearGradient>
 </defs>
 <g id="Layer_x0020_1">
  <metadata id="CorelCorpID_0Corel-Layer"/>
  <path class="fil0" d="M620.14 1142.89c-18.37,0 -26.86,-23 -13.19,-35 60.14,-52.64 59.86,-157.64 59.86,-158.75 -0.15,-23.55 31.54,-26.24 38.61,-7.98l313.43 10.35 -0.11 3.46 9.03 -17.92c6.39,3.19 10.69,10.42 10.97,17.5 0.83,17.08 8.19,104.58 63.47,153.06 19.74,17.25 -6.33,47.54 -26.25,30.28 -5.39,-4.72 -10.4,-9.7 -15.07,-14.88l-290.67 52.32 -124.56 -49.44c-7.61,8.24 -15.05,17.01 -25.54,17.01z"/>
  <path class="fil1" d="M563.72 647.2c-66.67,0 -120.83,-54.17 -120.83,-120.83l0 -10.69c0,-109.12 140.83,-150.18 140.83,-100.83l0 212.36c0,10.97 -8.89,20 -20,20z"/>
  <path class="fil2" d="M1151.29 647.2c-10.97,0 -20,-8.89 -20,-20l0 -212.5c0,-49.28 140.83,-8.33 140.83,100.83l0 10.69c-0,66.67 -54.17,120.97 -120.83,120.97z"/>
  <path class="fil3" d="M857.5 1021.64c-179.02,0 -324.72,-145.69 -324.72,-324.72l0 -257.5c0,-375.68 649.44,-286.04 649.44,0l0 257.5c0,179.02 -145.7,324.72 -324.72,324.72z"/>
  <path class="fil4" d="M1160.83 434.7c-0.97,0 -1.94,-0.14 -3.06,-0.28 -146.52,-22.14 -340.05,-82.02 -476.78,-177.76 -40.71,27.25 -111.23,85.09 -107.95,157.06 0.49,11.54 -8.78,20.98 -20.13,20.98 -19.86,0 -154.2,-87.46 -104.86,-350.28 2.97,-15.82 22.52,-21.79 33.89,-10.42 0.4,0.4 29.24,28.86 64.51,43.14 -16.66,-29.61 -27.75,-61.17 -31.87,-94.67 -2.42,-19.4 21.87,-30.33 34.86,-15.69 65.83,74.72 268.47,29.17 329.16,13.47 86.25,-22.36 162.08,-3.33 219.44,55.14 85.97,87.64 109.44,247.22 82.08,344.72 -2.5,8.75 -10.41,14.58 -19.3,14.58z"/>
  <path class="fil5" d="M1577.91 1706.63l-1449.16 0c-11.11,0 -20,-9.03 -20,-20 0,-482.09 385.49,-566.98 384.67,-566.77 135.16,164.1 575.37,185.35 692.97,-9.07 249.63,43.55 411.51,263.98 411.51,575.84 0,10.97 -9.02,20 -20,20z"/>
  <path class="fil6" d="M397.92 1706.63l-40 0 0 -525.89c13.87,-8.87 27.32,-16.57 40,-23.2l0 549.09z"/>
  <path class="fil7" d="M1348.74 1706.63l-40 0 0 -557.28c13.74,6.52 27.08,13.69 40,21.48l0 535.8z"/>
  <path class="fil8" d="M493.43 1119.86c39.9,-10.43 82.11,-16.26 126.3,-16.98 165.19,2.85 310.5,0.13 473.46,0 32.24,0 63.35,2.7 93.21,7.91 -117.6,194.42 -557.81,173.17 -692.97,9.07z"/>
  <path class="fil9" d="M858.47 815.81c-44.07,0 -114.17,-42.32 -85.14,-68.19 24.62,-21.93 34.57,26.95 83.61,28.19 47.92,1.21 61.11,-51.79 85.83,-27.5 27.15,26.68 -43.64,67.5 -84.3,67.5z"/>
  <path class="fil10" d="M736.39 580.11c-24.94,0 -18,-39.92 -55.14,-28.75 -25.11,7.55 -36.93,-30.12 -12.22,-38.19 71.17,-23.25 114.37,66.94 67.36,66.94z"/>
  <path class="fil11" d="M978.75 580.11c-14.14,0 -24.2,-14.69 -18.33,-28.06 25.92,-59.06 110.19,-49.93 98.33,-13.61 -10.43,31.94 -45.08,-8.95 -61.81,29.72 -3.19,7.5 -10.56,11.94 -18.19,11.94z"/>
  <path class="fil12" d="M853.33 1706.63c-6.25,0 -12.08,-2.92 -15.83,-7.78l-126.67 -163.61c-5.56,-7.22 -5.56,-17.22 0,-24.44l126.67 -163.61c7.5,-9.86 24.02,-9.86 31.66,0l126.67 163.61c5.56,7.22 5.56,17.22 0,24.44l-126.67 163.61c-3.75,4.86 -9.58,7.78 -15.83,7.78z"/>
  <path class="fil13" d="M462.27 1129.08c43.06,-14.33 89.16,-23.01 137.74,-25.49 36.03,163.01 447.79,185.13 490.94,-0.7 47.6,0 90.61,5.12 133.25,16.02 0,356.14 -765.01,300.24 -761.93,10.17z"/>
  <path class="fil14" d="M853.33 1658.73c-4.62,0 -8.93,-2.15 -11.7,-5.75l-93.59 -120.88c-4.11,-5.33 -4.11,-12.72 0,-18.06l93.59 -120.88c5.54,-7.29 17.75,-7.29 23.39,0l93.59 120.88c4.11,5.33 4.11,12.72 0,18.06l-93.59 120.88c-2.77,3.59 -7.08,5.75 -11.7,5.75z"/>
  <path class="fil15" d="M853.33 1625.51c-3.48,0 -6.74,-1.63 -8.83,-4.34l-70.65 -91.25c-3.1,-4.02 -3.1,-9.6 0,-13.63l70.65 -91.25c4.19,-5.5 13.4,-5.5 17.66,0l70.65 91.25c3.1,4.03 3.1,9.61 0,13.63l-70.65 91.25c-2.09,2.71 -5.35,4.34 -8.83,4.34z"/>
  <path class="fil16" d="M853.33 1591.83c-2.34,0 -4.52,-1.09 -5.92,-2.91l-47.39 -61.21c-2.08,-2.7 -2.08,-6.44 0,-9.15l47.39 -61.21c2.8,-3.69 8.99,-3.69 11.84,0l47.39 61.21c2.08,2.7 2.08,6.44 0,9.15l-47.39 61.21c-1.4,1.82 -3.58,2.91 -5.92,2.91z"/>
  <path class="fil17" d="M853.33 1562.98c-1.35,0 -2.62,-0.63 -3.43,-1.69l-27.46 -35.47c-1.2,-1.57 -1.2,-3.74 0,-5.3l27.46 -35.47c1.63,-2.14 5.21,-2.14 6.87,0l27.46 35.47c1.2,1.57 1.2,3.74 0,5.3l-27.46 35.47c-0.81,1.06 -2.08,1.69 -3.43,1.69z"/>
  <path class="fil18" d="M853.33 1549.29c-0.89,0 -1.72,-0.41 -2.25,-1.11l-18.01 -23.26c-0.79,-1.03 -0.79,-2.45 0,-3.48l18.01 -23.26c1.07,-1.4 3.42,-1.4 4.5,0l18.01 23.26c0.79,1.02 0.79,2.45 0,3.48l-18.01 23.26c-0.54,0.69 -1.36,1.11 -2.25,1.11z"/>
  <path class="fil19" d="M853.33 1541.68c-0.63,0 -1.22,-0.3 -1.59,-0.78l-12.75 -16.47c-0.56,-0.73 -0.56,-1.74 0,-2.46l12.75 -16.48c0.76,-0.99 2.42,-0.99 3.19,0l12.75 16.48c0.56,0.72 0.56,1.73 0,2.46l-12.75 16.47c-0.38,0.49 -0.96,0.78 -1.59,0.78z"/>
  <path class="fil20" d="M853.33 1534.75c-0.39,0 -0.76,-0.19 -1,-0.49l-7.96 -10.29c-0.35,-0.45 -0.35,-1.08 0,-1.54l7.96 -10.29c0.47,-0.62 1.51,-0.62 1.99,0l7.96 10.29c0.35,0.45 0.35,1.08 0,1.54l-7.96 10.29c-0.24,0.3 -0.6,0.49 -1,0.49z"/>
  <path class="fil21" d="M853.33 1530.04c-0.23,0 -0.45,-0.11 -0.59,-0.29l-4.72 -6.09c-0.2,-0.27 -0.2,-0.64 0,-0.91l4.72 -6.09c0.28,-0.37 0.89,-0.37 1.18,0l4.72 6.09c0.2,0.27 0.2,0.64 0,0.91l-4.72 6.09c-0.14,0.18 -0.36,0.29 -0.59,0.29z"/>
  <path class="fil22" d="M853.33 1528c-0.16,0 -0.31,-0.08 -0.41,-0.2l-3.3 -4.26c-0.14,-0.19 -0.14,-0.45 0,-0.64l3.3 -4.27c0.2,-0.26 0.63,-0.26 0.83,0l3.3 4.27c0.14,0.19 0.14,0.45 0,0.64l-3.3 4.26c-0.1,0.13 -0.25,0.2 -0.41,0.2z"/>
  <path class="fil23" d="M853.33 1526.3c-0.11,0 -0.2,-0.05 -0.27,-0.13l-2.13 -2.75c-0.09,-0.12 -0.09,-0.29 0,-0.41l2.13 -2.75c0.13,-0.17 0.41,-0.17 0.54,0l2.13 2.75c0.09,0.12 0.09,0.29 0,0.41l-2.13 2.75c-0.06,0.08 -0.16,0.13 -0.27,0.13z"/>
  <path class="fil24" d="M853.33 1524.96c-0.06,0 -0.11,-0.03 -0.15,-0.07l-1.21 -1.56c-0.05,-0.07 -0.05,-0.17 0,-0.23l1.21 -1.56c0.07,-0.09 0.23,-0.09 0.3,0l1.21 1.56c0.05,0.07 0.05,0.17 0,0.23l-1.21 1.56c-0.04,0.05 -0.09,0.07 -0.15,0.07z"/>
 </g>
</svg>
