<?xml version="1.0" encoding="UTF-8" standalone="no"?> <svg width="64" height="64" viewBox="0 0 64 64" fill="none" xmlns="http://www.w3.org/2000/svg">
<path d="M36.6701 6.66992C30.2999 6.67479 24.165 9.07783 19.4862 13.4008C14.8074 17.7239 11.9277 23.65 11.4201 29.9999H4.00012C3.65001 29.9885 3.30365 30.0751 3.00012 30.2499C2.72695 30.3985 2.49219 30.6087 2.31446 30.8638C2.13674 31.1189 2.02095 31.412 1.9763 31.7197C1.93164 32.0274 1.95935 32.3413 2.05723 32.6365C2.1551 32.9316 2.32044 33.1999 2.54012 33.4199L11.8701 42.7499C12.0559 42.9359 12.2764 43.0834 12.5192 43.184C12.762 43.2847 13.0223 43.3365 13.2851 43.3365C13.548 43.3365 13.8082 43.2847 14.051 43.184C14.2938 43.0834 14.5144 42.9359 14.7001 42.7499L24.0301 33.4199C24.2498 33.1999 24.4151 32.9316 24.513 32.6365C24.6109 32.3413 24.6386 32.0274 24.5939 31.7197C24.5493 31.412 24.4335 31.1189 24.2558 30.8638C24.0781 30.6087 23.8433 30.3985 23.5701 30.2499C23.2808 30.0848 22.9532 29.9985 22.6201 29.9999H15.4301C18.8501 3.22992 57.0501 4.89992 58.0001 31.9999C57.9922 37.6546 55.7424 43.0753 51.7439 47.0737C47.7455 51.0722 42.3247 53.322 36.6701 53.3299C36.1397 53.3299 35.631 53.5406 35.2559 53.9157C34.8808 54.2908 34.6701 54.7995 34.6701 55.3299C34.6701 55.8604 34.8808 56.3691 35.2559 56.7441C35.631 57.1192 36.1397 57.3299 36.6701 57.3299C70.2801 55.9399 70.2601 8.04992 36.6701 6.66992Z" fill="black"/>
<path d="M36.6702 19.6602C36.1397 19.6602 35.631 19.8709 35.256 20.2459C34.8809 20.621 34.6702 21.1297 34.6702 21.6602V32.0002C34.6705 32.3509 34.7631 32.6953 34.9386 32.999C35.1141 33.3026 35.3664 33.5548 35.6702 33.7302L48.6002 41.2402C49.0572 41.4793 49.589 41.5325 50.0845 41.3888C50.5799 41.2451 51.0006 40.9155 51.2588 40.4689C51.5169 40.0223 51.5925 39.4932 51.4698 38.9922C51.3471 38.4911 51.0355 38.0569 50.6002 37.7802L38.6702 30.8502V21.6602C38.6702 21.1297 38.4595 20.621 38.0844 20.2459C37.7093 19.8709 37.2006 19.6602 36.6702 19.6602Z" fill="black"/>
</svg>
