<?xml version="1.0" encoding="UTF-8" standalone="no"?> <svg width="64" height="64" viewBox="0 0 64 64" fill="none" xmlns="http://www.w3.org/2000/svg">
<path d="M31.9998 30.93C34.3374 30.9265 36.601 30.1106 38.4033 28.622C40.2057 27.1335 41.4346 25.0648 41.8799 22.77V22.63C41.9836 22.0457 42.0371 21.4535 42.0399 20.86C42.0372 18.1953 40.9796 15.64 39.0981 13.753C37.2167 11.8659 34.6646 10.8006 31.9998 10.79C31.403 10.7923 30.8075 10.8459 30.2198 10.95H30.0898C28.3941 11.2821 26.8121 12.0441 25.4954 13.163C24.1786 14.2819 23.1713 15.7202 22.5698 17.34C22.5173 17.4335 22.4802 17.5348 22.4598 17.64C21.9487 19.1548 21.8054 20.7695 22.0421 22.3505C22.2787 23.9316 22.8883 25.4336 23.8206 26.7323C24.7529 28.031 25.9809 29.0891 27.4032 29.8191C28.8255 30.549 30.4012 30.9298 31.9998 30.93V30.93ZM31.9998 27.93C30.1256 27.9274 28.3288 27.1817 27.0035 25.8564C25.6782 24.5311 24.9325 22.7343 24.9298 20.86C24.9326 20.4813 24.966 20.1034 25.0298 19.73C25.3498 19.73 25.6698 19.79 26.0298 19.79C27.4335 19.7877 28.8206 19.4877 30.0998 18.91C30.9312 20.3772 32.1176 21.6121 33.5503 22.5014C34.9831 23.3907 36.6162 23.906 38.2998 24C37.7175 25.1749 36.8199 26.1647 35.7073 26.8587C34.5948 27.5527 33.3111 27.9236 31.9998 27.93ZM39.0698 20.86C39.0698 20.93 39.0698 20.99 39.0698 21.06H38.8698C36.9956 21.06 35.1978 20.3169 33.8706 18.9934C32.5434 17.67 31.7951 15.8743 31.7899 14C31.7846 13.9335 31.7846 13.8666 31.7899 13.8H31.9998C33.8724 13.8027 35.6676 14.547 36.9927 15.8702C38.3177 17.1933 39.0646 18.9875 39.0698 20.86V20.86ZM28.8098 14.55C28.8352 15.0745 28.902 15.5961 29.0098 16.11C28.1424 16.52 27.199 16.7447 26.2398 16.77C26.9058 15.8344 27.7873 15.0729 28.8098 14.55V14.55Z" fill="url(#paint0_linear_206_9285)"/>
<path d="M31.9998 6.50009C27.1435 6.49976 22.3881 7.88615 18.2928 10.4962C14.1976 13.1063 10.9327 16.8315 8.88237 21.2337C6.83199 25.636 6.0813 30.5321 6.71859 35.3464C7.35588 40.1608 9.35464 44.693 12.4798 48.4101V48.4101C12.7398 48.7101 12.9898 49.0001 13.2898 49.3201L13.5398 49.5801C13.6698 49.7301 13.8098 49.8601 13.9498 50.0001L14.1698 50.2101L14.3898 50.4301C14.6898 50.7201 15.0098 51.0001 15.2998 51.2401C15.5898 51.4801 15.9998 51.8501 16.2998 52.1001C16.5998 52.3501 16.9198 52.5701 17.2398 52.7901C17.3216 52.8569 17.4085 52.917 17.4998 52.9701L18.0898 53.3701L18.6698 53.7301H18.7398C19.4498 54.1701 20.1398 54.5401 20.8498 54.8901H20.9598C21.2698 55.0401 21.5798 55.1801 21.8798 55.3001C23.0743 55.8061 24.3043 56.2239 25.5598 56.5501L26.6998 56.8101C27.0598 56.8901 27.4298 56.9601 27.7598 57.0101L28.2598 57.0901L29.0398 57.1901H29.5398C29.8298 57.1901 30.1398 57.1901 30.4398 57.2501C30.5095 57.2589 30.5801 57.2589 30.6498 57.2501C31.0698 57.2501 31.4898 57.2501 31.9098 57.2501C32.3298 57.2501 32.7498 57.2501 33.0698 57.2501H33.3798L34.3098 57.1901H34.7498L35.5598 57.0901L36.0098 57.0201C36.3898 56.9601 36.7598 56.8901 37.1298 56.8101L38.2898 56.5501C39.5504 56.2736 40.7901 55.9094 41.9998 55.4601C42.3198 55.3301 42.6298 55.1901 42.9998 55.0301H43.0998C43.8098 54.6801 44.4998 54.3101 45.2098 53.8701H45.2898L45.8098 53.5501C46.0198 53.4201 46.2398 53.2701 46.4498 53.1201C46.5264 53.075 46.5999 53.0249 46.6698 52.9701C46.9998 52.7501 47.3298 52.5001 47.6098 52.2801C47.8898 52.0601 48.3398 51.7001 48.6098 51.4201C48.8798 51.1401 49.2498 50.8701 49.5098 50.6201L49.7898 50.3501L49.6098 50.1701C49.9269 50.1066 50.2147 49.9416 50.4298 49.7001L50.6798 49.4301C50.9498 49.1501 51.1998 48.8601 51.4598 48.5601C54.6281 44.8501 56.6657 40.3091 57.3307 35.4759C57.9958 30.6427 57.2603 25.7202 55.2117 21.2924C53.1631 16.8646 49.8873 13.1174 45.773 10.4955C41.6587 7.87354 36.8785 6.4869 31.9998 6.50009V6.50009ZM31.9998 9.50009C36.0424 9.49247 40.0121 10.5761 43.4902 12.6366C46.9682 14.6972 49.8256 17.6582 51.761 21.2074C53.6964 24.7566 54.638 28.7624 54.4864 32.8022C54.3348 36.8419 53.0957 40.7659 50.8998 44.1601C49.3911 40.3804 46.7839 37.1399 43.4147 34.8571C40.0456 32.5743 36.0695 31.3541 31.9998 31.3541C27.9302 31.3541 23.954 32.5743 20.5849 34.8571C17.2158 37.1399 14.6085 40.3804 13.0998 44.1601C10.9039 40.7659 9.66482 36.8419 9.51325 32.8022C9.36168 28.7624 10.3032 24.7566 12.2386 21.2074C14.174 17.6582 17.0314 14.6972 20.5095 12.6366C23.9875 10.5761 27.9572 9.49247 31.9998 9.50009V9.50009ZM48.5398 47.2601C48.4255 47.366 48.3186 47.4796 48.2198 47.6001C48.0339 47.805 47.9092 48.0579 47.8598 48.3301L47.6698 48.1401L47.4698 48.3301C47.2298 48.5701 46.9798 48.8001 46.6898 49.0401C46.3998 49.2801 46.0898 49.5501 45.7398 49.8101C45.3898 50.0701 45.2098 50.2201 44.8798 50.4501L44.7698 50.5201L44.6898 50.5801C44.5298 50.6901 44.3698 50.8001 44.1498 50.9301L43.6998 51.2201H43.6498C43.0198 51.6001 42.4098 51.9401 41.7898 52.2201L41.6398 52.2901C41.3898 52.4101 41.1298 52.5301 40.8498 52.6401C39.8124 53.0869 38.7427 53.4546 37.6498 53.7401L36.6498 53.9701C36.3398 54.0401 36.0298 54.1001 35.6498 54.1601H35.2998H35.1998C34.9998 54.1601 34.7898 54.2201 34.5498 54.2501H34.1298C33.8798 54.2501 33.6198 54.3001 33.3598 54.3101H33.0898C32.384 54.3601 31.6756 54.3601 30.9698 54.3101H30.6998L29.9598 54.2601L29.4898 54.2001C29.2786 54.1846 29.0683 54.1579 28.8598 54.1201H28.7598L28.3598 54.0601L27.3998 54.0001L26.3998 53.7601C25.2886 53.4774 24.2018 53.1062 23.1498 52.6501C22.8937 52.5508 22.6433 52.4373 22.3998 52.3101L22.2298 52.2401C21.6098 51.9401 20.9998 51.6001 20.3698 51.2401H20.3198L19.8198 50.9201C19.6498 50.8201 19.4898 50.7101 19.3298 50.6001L19.2298 50.5401C19.1849 50.4941 19.1345 50.4538 19.0798 50.4201C18.7998 50.2301 18.5398 50.0401 18.2498 49.8101C17.9598 49.5801 17.6298 49.3201 17.2998 49.0301C16.9698 48.7401 16.7898 48.5901 16.4998 48.3101L16.3398 48.1501L16.1198 47.9401C16.0098 47.8201 15.8898 47.7101 15.7998 47.6201L15.5198 47.3101L15.3098 47.0801C16.3226 43.4262 18.5051 40.205 21.5231 37.9097C24.541 35.6145 28.2282 34.3717 32.0198 34.3717C35.8115 34.3717 39.4986 35.6145 42.5166 37.9097C45.5346 40.205 47.7171 43.4262 48.7298 47.0801L48.5398 47.2601Z" fill="url(#paint1_linear_206_9285)"/>
<defs>
<linearGradient id="paint0_linear_206_9285" x1="21.9298" y1="20.86" x2="42.0699" y2="20.86" gradientUnits="userSpaceOnUse">
<stop stop-color="#FD2411"/>
<stop offset="0.31" stop-color="#DE170C"/>
<stop offset="0.76" stop-color="#B70606"/>
<stop offset="1" stop-color="#A80004"/>
</linearGradient>
<linearGradient id="paint1_linear_206_9285" x1="338.458" y1="1630.71" x2="2943.06" y2="1630.71" gradientUnits="userSpaceOnUse">
<stop stop-color="#FD2411"/>
<stop offset="0.31" stop-color="#DE170C"/>
<stop offset="0.76" stop-color="#B70606"/>
<stop offset="1" stop-color="#A80004"/>
</linearGradient>
</defs>
</svg>
